<mxfile host="app.diagrams.net" modified="2024-05-25T21:36:12.310Z" agent="Mozilla/5.0 (Windows NT 10.0; Win64; x64) AppleWebKit/537.36 (KHTML, like Gecko) Chrome/125.0.0.0 Safari/537.36" etag="0I-THbZcW7lnQSARAyWq" version="24.4.6" type="device">
  <diagram name="Page-1" id="0-XdJWmdbxl3eh0Rh0fM">
    <mxGraphModel dx="1122" dy="744" grid="1" gridSize="10" guides="1" tooltips="1" connect="1" arrows="1" fold="1" page="1" pageScale="1" pageWidth="827" pageHeight="1169" math="0" shadow="0">
      <root>
        <mxCell id="0" />
        <mxCell id="1" parent="0" />
        <mxCell id="1GAKg4Wlus99OQBmiNFw-12" value="" style="group" vertex="1" connectable="0" parent="1">
          <mxGeometry x="370" y="10" width="430" height="430" as="geometry" />
        </mxCell>
        <mxCell id="1GAKg4Wlus99OQBmiNFw-10" value="" style="whiteSpace=wrap;html=1;aspect=fixed;" vertex="1" parent="1GAKg4Wlus99OQBmiNFw-12">
          <mxGeometry width="430" height="430" as="geometry" />
        </mxCell>
        <mxCell id="1GAKg4Wlus99OQBmiNFw-11" value="Object detection" style="text;html=1;align=center;verticalAlign=middle;whiteSpace=wrap;rounded=0;fontSize=18;" vertex="1" parent="1GAKg4Wlus99OQBmiNFw-12">
          <mxGeometry x="135" y="20" width="150" height="30" as="geometry" />
        </mxCell>
        <mxCell id="1GAKg4Wlus99OQBmiNFw-5" value="Detection model" style="whiteSpace=wrap;html=1;aspect=fixed;" vertex="1" parent="1GAKg4Wlus99OQBmiNFw-12">
          <mxGeometry x="110" y="260" width="80" height="80" as="geometry" />
        </mxCell>
        <mxCell id="1GAKg4Wlus99OQBmiNFw-1" value="Images Database" style="shape=cylinder3;whiteSpace=wrap;html=1;boundedLbl=1;backgroundOutline=1;size=15;" vertex="1" parent="1">
          <mxGeometry x="120" y="100" width="60" height="80" as="geometry" />
        </mxCell>
        <mxCell id="1GAKg4Wlus99OQBmiNFw-4" value="" style="edgeStyle=orthogonalEdgeStyle;rounded=0;orthogonalLoop=1;jettySize=auto;html=1;" edge="1" parent="1" source="1GAKg4Wlus99OQBmiNFw-2" target="1GAKg4Wlus99OQBmiNFw-1">
          <mxGeometry relative="1" as="geometry" />
        </mxCell>
        <mxCell id="1GAKg4Wlus99OQBmiNFw-2" value="Images API" style="whiteSpace=wrap;html=1;aspect=fixed;" vertex="1" parent="1">
          <mxGeometry x="230" y="100" width="80" height="80" as="geometry" />
        </mxCell>
        <mxCell id="1GAKg4Wlus99OQBmiNFw-8" value="" style="edgeStyle=orthogonalEdgeStyle;rounded=0;orthogonalLoop=1;jettySize=auto;html=1;" edge="1" parent="1" source="1GAKg4Wlus99OQBmiNFw-7" target="1GAKg4Wlus99OQBmiNFw-2">
          <mxGeometry relative="1" as="geometry" />
        </mxCell>
        <mxCell id="1GAKg4Wlus99OQBmiNFw-9" value="" style="group" vertex="1" connectable="0" parent="1">
          <mxGeometry x="420" y="70" width="170" height="140" as="geometry" />
        </mxCell>
        <mxCell id="1GAKg4Wlus99OQBmiNFw-6" value="Data Loader" style="whiteSpace=wrap;html=1;aspect=fixed;" vertex="1" parent="1GAKg4Wlus99OQBmiNFw-9">
          <mxGeometry x="30" width="140" height="140" as="geometry" />
        </mxCell>
        <mxCell id="1GAKg4Wlus99OQBmiNFw-7" value="Client" style="whiteSpace=wrap;html=1;aspect=fixed;" vertex="1" parent="1GAKg4Wlus99OQBmiNFw-9">
          <mxGeometry y="45" width="50" height="50" as="geometry" />
        </mxCell>
        <mxCell id="1GAKg4Wlus99OQBmiNFw-13" style="edgeStyle=orthogonalEdgeStyle;rounded=0;orthogonalLoop=1;jettySize=auto;html=1;entryX=0.5;entryY=1;entryDx=0;entryDy=0;" edge="1" parent="1" source="1GAKg4Wlus99OQBmiNFw-5" target="1GAKg4Wlus99OQBmiNFw-6">
          <mxGeometry relative="1" as="geometry" />
        </mxCell>
        <mxCell id="1GAKg4Wlus99OQBmiNFw-15" style="edgeStyle=orthogonalEdgeStyle;rounded=0;orthogonalLoop=1;jettySize=auto;html=1;entryX=0.5;entryY=1;entryDx=0;entryDy=0;" edge="1" parent="1" source="1GAKg4Wlus99OQBmiNFw-14" target="1GAKg4Wlus99OQBmiNFw-10">
          <mxGeometry relative="1" as="geometry" />
        </mxCell>
        <mxCell id="1GAKg4Wlus99OQBmiNFw-14" value="Detection API" style="whiteSpace=wrap;html=1;aspect=fixed;" vertex="1" parent="1">
          <mxGeometry x="545" y="505" width="80" height="80" as="geometry" />
        </mxCell>
        <mxCell id="1GAKg4Wlus99OQBmiNFw-18" value="" style="group" vertex="1" connectable="0" parent="1">
          <mxGeometry x="380" y="680" width="410" height="380" as="geometry" />
        </mxCell>
        <mxCell id="1GAKg4Wlus99OQBmiNFw-16" value="" style="whiteSpace=wrap;html=1;aspect=fixed;" vertex="1" parent="1GAKg4Wlus99OQBmiNFw-18">
          <mxGeometry width="380" height="380" as="geometry" />
        </mxCell>
        <mxCell id="1GAKg4Wlus99OQBmiNFw-17" value="&lt;font style=&quot;font-size: 18px;&quot;&gt;User Interface&lt;/font&gt;" style="text;html=1;align=center;verticalAlign=middle;whiteSpace=wrap;rounded=0;" vertex="1" parent="1GAKg4Wlus99OQBmiNFw-18">
          <mxGeometry x="75.76086956521739" y="33.04347826086957" width="258.4782608695652" height="49.56521739130435" as="geometry" />
        </mxCell>
        <mxCell id="1GAKg4Wlus99OQBmiNFw-19" value="" style="whiteSpace=wrap;html=1;aspect=fixed;" vertex="1" parent="1GAKg4Wlus99OQBmiNFw-18">
          <mxGeometry x="30" y="100" width="180" height="180" as="geometry" />
        </mxCell>
        <mxCell id="1GAKg4Wlus99OQBmiNFw-20" value="Choose image" style="rounded=0;whiteSpace=wrap;html=1;" vertex="1" parent="1GAKg4Wlus99OQBmiNFw-18">
          <mxGeometry x="75" y="150" width="90" height="40" as="geometry" />
        </mxCell>
        <mxCell id="1GAKg4Wlus99OQBmiNFw-21" value="View" style="text;html=1;align=center;verticalAlign=middle;whiteSpace=wrap;rounded=0;" vertex="1" parent="1GAKg4Wlus99OQBmiNFw-18">
          <mxGeometry x="90" y="110" width="60" height="30" as="geometry" />
        </mxCell>
        <mxCell id="1GAKg4Wlus99OQBmiNFw-25" style="edgeStyle=orthogonalEdgeStyle;rounded=0;orthogonalLoop=1;jettySize=auto;html=1;" edge="1" parent="1GAKg4Wlus99OQBmiNFw-18" source="1GAKg4Wlus99OQBmiNFw-22" target="1GAKg4Wlus99OQBmiNFw-23">
          <mxGeometry relative="1" as="geometry" />
        </mxCell>
        <mxCell id="1GAKg4Wlus99OQBmiNFw-22" value="Predict" style="rounded=0;whiteSpace=wrap;html=1;" vertex="1" parent="1GAKg4Wlus99OQBmiNFw-18">
          <mxGeometry x="75" y="210" width="90" height="40" as="geometry" />
        </mxCell>
        <mxCell id="1GAKg4Wlus99OQBmiNFw-23" value="Detection client" style="whiteSpace=wrap;html=1;aspect=fixed;" vertex="1" parent="1GAKg4Wlus99OQBmiNFw-18">
          <mxGeometry x="270" y="100" width="80" height="80" as="geometry" />
        </mxCell>
        <mxCell id="1GAKg4Wlus99OQBmiNFw-24" style="edgeStyle=orthogonalEdgeStyle;rounded=0;orthogonalLoop=1;jettySize=auto;html=1;" edge="1" parent="1" source="1GAKg4Wlus99OQBmiNFw-23" target="1GAKg4Wlus99OQBmiNFw-14">
          <mxGeometry relative="1" as="geometry">
            <Array as="points">
              <mxPoint x="690" y="545" />
            </Array>
          </mxGeometry>
        </mxCell>
        <mxCell id="1GAKg4Wlus99OQBmiNFw-26" value="" style="whiteSpace=wrap;html=1;aspect=fixed;" vertex="1" parent="1">
          <mxGeometry x="60" y="415" width="260" height="260" as="geometry" />
        </mxCell>
        <mxCell id="1GAKg4Wlus99OQBmiNFw-27" value="Model training" style="text;html=1;align=center;verticalAlign=middle;whiteSpace=wrap;rounded=0;fontSize=18;" vertex="1" parent="1">
          <mxGeometry x="125" y="440" width="130" height="30" as="geometry" />
        </mxCell>
        <mxCell id="1GAKg4Wlus99OQBmiNFw-28" value="Data manager" style="whiteSpace=wrap;html=1;aspect=fixed;" vertex="1" parent="1">
          <mxGeometry x="90" y="505" width="85" height="85" as="geometry" />
        </mxCell>
        <mxCell id="1GAKg4Wlus99OQBmiNFw-29" value="Training manager" style="whiteSpace=wrap;html=1;aspect=fixed;" vertex="1" parent="1">
          <mxGeometry x="210" y="505" width="85" height="85" as="geometry" />
        </mxCell>
        <mxCell id="1GAKg4Wlus99OQBmiNFw-31" style="edgeStyle=orthogonalEdgeStyle;rounded=0;orthogonalLoop=1;jettySize=auto;html=1;" edge="1" parent="1" source="1GAKg4Wlus99OQBmiNFw-30" target="1GAKg4Wlus99OQBmiNFw-14">
          <mxGeometry relative="1" as="geometry">
            <Array as="points">
              <mxPoint x="490" y="548" />
              <mxPoint x="490" y="548" />
            </Array>
          </mxGeometry>
        </mxCell>
        <mxCell id="1GAKg4Wlus99OQBmiNFw-30" value="Client" style="whiteSpace=wrap;html=1;aspect=fixed;" vertex="1" parent="1">
          <mxGeometry x="280" y="520" width="55" height="55" as="geometry" />
        </mxCell>
        <mxCell id="1GAKg4Wlus99OQBmiNFw-33" style="edgeStyle=orthogonalEdgeStyle;rounded=0;orthogonalLoop=1;jettySize=auto;html=1;entryX=0.5;entryY=1;entryDx=0;entryDy=0;" edge="1" parent="1" source="1GAKg4Wlus99OQBmiNFw-32" target="1GAKg4Wlus99OQBmiNFw-2">
          <mxGeometry relative="1" as="geometry" />
        </mxCell>
        <mxCell id="1GAKg4Wlus99OQBmiNFw-32" value="Client" style="whiteSpace=wrap;html=1;aspect=fixed;" vertex="1" parent="1">
          <mxGeometry x="107.5" y="470" width="50" height="50" as="geometry" />
        </mxCell>
      </root>
    </mxGraphModel>
  </diagram>
</mxfile>
